<svg xmlns="http://www.w3.org/2000/svg" viewBox="0 0 24 24" fill="currentColor"><path d="M12 2.25a.75.75 0 0 1 .75.75v1.5a.75.75 0 0 1-1.5 0V3a.75.75 0 0 1 .75-.75ZM7.5 12a4.5 4.5 0 1 1 9 0 4.5 4.5 0 0 1-9 0ZM3 12a.75.75 0 0 1 .75-.75h1.5a.75.75 0 0 1 0 1.5h-1.5A.75.75 0 0 1 3 12Zm15 0a.75.75 0 0 1 .75-.75h1.5a.75.75 0 0 1 0 1.5h-1.5A.75.75 0 0 1 18 12Zm-6 9a.75.75 0 0 1-.75-.75v-1.5a.75.75 0 0 1 1.5 0v1.5A.75.75 0 0 1 12 21ZM5.636 4.636a.75.75 0 0 1 1.06 0l1.061 1.06a.75.75 0 1 1-1.06 1.061L5.636 5.697a.75.75 0 0 1 0-1.06Zm11.668 11.668a.75.75 0 0 1 1.06 0l1.061 1.06a.75.75 0 1 1-1.06 1.061l-1.061-1.06a.75.75 0 0 1 0-1.061Zm1.06-11.668a.75.75 0 0 1 0 1.06l-1.06 1.061a.75.75 0 1 1-1.061-1.06l1.06-1.061a.75.75 0 0 1 1.061 0ZM6.697 16.304a.75.75 0 0 1 0 1.06l-1.06 1.061a.75.75 0 1 1-1.061-1.06l1.06-1.061a.75.75 0 0 1 1.061 0Z"/></svg>
